<svg width="1272" height="1061" viewBox="0 0 1272 1061" fill="none" xmlns="http://www.w3.org/2000/svg">
<path d="M976.694 188.944H62.687V782.715H976.694V188.944Z" fill="#2A9D8F"/>
<path opacity="0.4" d="M976.694 188.944H62.687V782.715H976.694V188.944Z" fill="white"/>
<path d="M916.283 393.928H396.566V723.004H916.283V393.928Z" fill="white" stroke="#263238" stroke-miterlimit="10"/>
<path d="M559.386 355.667L549.379 326.845H386.459V746.955H926.39V355.667H559.386ZM916.316 723.004H396.566V393.928H916.283L916.316 723.004Z" fill="#2A9D8F" stroke="#263238" stroke-miterlimit="10"/>
<path d="M817.51 366.575H559.32V382.386H817.51V366.575Z" fill="white" stroke="#263238" stroke-miterlimit="10"/>
<path d="M409.076 364.039L401.637 371.211L409.342 379.484" stroke="#263238" stroke-linecap="round" stroke-linejoin="round"/>
<path d="M401.637 371.211H418.182" stroke="#263238" stroke-linecap="round" stroke-linejoin="round"/>
<path d="M451.274 364.039L458.746 371.211L451.007 379.484" stroke="#263238" stroke-linecap="round" stroke-linejoin="round"/>
<path d="M458.746 371.211H442.2" stroke="#263238" stroke-linecap="round" stroke-linejoin="round"/>
<path d="M494.305 370.244C493.838 368.578 492.852 367.104 491.49 366.036C490.129 364.969 488.462 364.363 486.733 364.306C485.712 364.238 484.688 364.38 483.724 364.724C482.76 365.068 481.877 365.606 481.13 366.305C480.382 367.004 479.787 367.849 479.379 368.787C478.972 369.726 478.762 370.738 478.762 371.762C478.762 372.785 478.972 373.797 479.379 374.736C479.787 375.675 480.382 376.52 481.13 377.219C481.877 377.918 482.76 378.456 483.724 378.8C484.688 379.144 485.712 379.286 486.733 379.217C488.452 379.221 490.118 378.619 491.436 377.516" stroke="#263238" stroke-linecap="round" stroke-linejoin="round"/>
<path d="M489.301 371.078H495.072V364.206" stroke="#263238" stroke-linecap="round" stroke-linejoin="round"/>
<path d="M533.767 368.643L526.896 363.072L520.357 368.643V380.752H533.767V368.643Z" stroke="#263238" stroke-linecap="round" stroke-linejoin="round"/>
<path d="M529.531 371.912H524.294V380.318H529.531V371.912Z" fill="#263238"/>
<path d="M520.358 368.643L516.421 372.245" stroke="#263238" stroke-linecap="round" stroke-linejoin="round"/>
<path d="M533.768 368.643L537.47 371.912" stroke="#263238" stroke-linecap="round" stroke-linejoin="round"/>
<path d="M531.299 341.756L541.773 352.564" stroke="#263238" stroke-linecap="round" stroke-linejoin="round"/>
<path d="M541.94 341.923L531.132 352.398" stroke="#263238" stroke-linecap="round" stroke-linejoin="round"/>
<path d="M888.896 369.477H909.611" stroke="#263238" stroke-linecap="round" stroke-linejoin="round"/>
<path d="M888.896 374.147H909.611" stroke="#263238" stroke-linecap="round" stroke-linejoin="round"/>
<path d="M888.896 378.784H909.611" stroke="#263238" stroke-linecap="round" stroke-linejoin="round"/>
<path d="M888.896 383.454H909.611" stroke="#263238" stroke-linecap="round" stroke-linejoin="round"/>
<path d="M780.216 432.757H806.302" stroke="#263238" stroke-linecap="round" stroke-linejoin="round"/>
<path d="M746.458 432.757H769.341" stroke="#263238" stroke-linecap="round" stroke-linejoin="round"/>
<path d="M690.316 432.757H737.985" stroke="#263238" stroke-linecap="round" stroke-linejoin="round"/>
<path d="M690.316 448.702H806.302" stroke="#263238" stroke-linecap="round" stroke-linejoin="round"/>
<path d="M789.256 464.614H806.302" stroke="#263238" stroke-linecap="round" stroke-linejoin="round"/>
<path d="M709.063 464.614H778.381" stroke="#263238" stroke-linecap="round" stroke-linejoin="round"/>
<path d="M690.316 464.614H699.423" stroke="#263238" stroke-linecap="round" stroke-linejoin="round"/>
<path d="M690.316 480.525H806.302" stroke="#263238" stroke-linecap="round" stroke-linejoin="round"/>
<path d="M730.746 613.357H704.96V692.582H730.746V613.357Z" fill="#263238" stroke="#263238" stroke-linecap="round" stroke-linejoin="round"/>
<path d="M767.606 519.387H741.821V692.615H767.606V519.387Z" fill="#2A9D8F" stroke="#263238" stroke-miterlimit="10"/>
<path d="M804.467 570.992H778.682V692.615H804.467V570.992Z" fill="#263238" stroke="#263238" stroke-linecap="round" stroke-linejoin="round"/>
<path d="M841.294 519.387H815.509V692.615H841.294V519.387Z" fill="#2A9D8F" stroke="#263238" stroke-miterlimit="10"/>
<path d="M878.155 443.832H852.369V692.615H878.155V443.832Z" fill="#263238" stroke="#263238" stroke-linecap="round" stroke-linejoin="round"/>
<path d="M623.367 293.821H103.65V622.897H623.367V293.821Z" fill="white" stroke="#263238" stroke-miterlimit="10"/>
<path d="M266.437 255.593L256.43 226.738H93.543V646.848H633.441V255.593H266.437ZM623.367 622.897H103.817V293.821H623.534L623.367 622.897Z" fill="#2A9D8F" stroke="#263238" stroke-miterlimit="10"/>
<path d="M524.561 266.468H266.371V282.279H524.561V266.468Z" fill="white" stroke="#263238" stroke-miterlimit="10"/>
<path d="M116.16 263.932L108.688 271.138L116.427 279.41" stroke="#263238" stroke-linecap="round" stroke-linejoin="round"/>
<path d="M108.688 271.138H125.266" stroke="#263238" stroke-linecap="round" stroke-linejoin="round"/>
<path d="M158.358 263.932L165.797 271.138L158.091 279.41" stroke="#263238" stroke-linecap="round" stroke-linejoin="round"/>
<path d="M165.83 271.138H149.251" stroke="#263238" stroke-linecap="round" stroke-linejoin="round"/>
<path d="M201.389 270.17C200.93 268.512 199.956 267.043 198.606 265.976C197.257 264.908 195.603 264.298 193.884 264.233C191.911 264.233 190.019 265.016 188.624 266.411C187.229 267.806 186.445 269.699 186.445 271.671C186.445 273.644 187.229 275.536 188.624 276.931C190.019 278.326 191.911 279.11 193.884 279.11C195.606 279.109 197.277 278.521 198.62 277.442" stroke="#263238" stroke-linecap="round" stroke-linejoin="round"/>
<path d="M196.352 271.004H202.156V264.099" stroke="#263238" stroke-linecap="round" stroke-linejoin="round"/>
<path d="M240.852 268.536L233.98 262.998L227.442 268.536V280.645H240.852V268.536Z" stroke="#263238" stroke-linecap="round" stroke-linejoin="round"/>
<path d="M236.582 271.805H231.345V280.211H236.582V271.805Z" fill="#263238"/>
<path d="M227.442 268.536L223.505 272.138" stroke="#263238" stroke-linecap="round" stroke-linejoin="round"/>
<path d="M240.852 268.536L244.554 271.838" stroke="#263238" stroke-linecap="round" stroke-linejoin="round"/>
<path d="M238.383 241.683L248.824 252.457" stroke="#263238" stroke-linecap="round" stroke-linejoin="round"/>
<path d="M248.991 241.849L238.216 252.29" stroke="#263238" stroke-linecap="round" stroke-linejoin="round"/>
<path d="M595.98 269.37H616.695" stroke="#263238" stroke-linecap="round" stroke-linejoin="round"/>
<path d="M595.98 274.04H616.695" stroke="#263238" stroke-linecap="round" stroke-linejoin="round"/>
<path d="M595.98 278.71H616.695" stroke="#263238" stroke-linecap="round" stroke-linejoin="round"/>
<path d="M595.98 283.38H616.695" stroke="#263238" stroke-linecap="round" stroke-linejoin="round"/>
<path d="M130.37 591.14V477.49L166.53 554.046L197.253 540.636L232.012 568.09L291.222 529.595L327.382 580.099L352.701 567.489L374.383 580.099L401.503 576.93L437.63 585.636L475.591 582.467L499.742 591.14H130.37Z" fill="#263238"/>
<path d="M510.984 393.928H550.38" stroke="#263238" stroke-linecap="round" stroke-linejoin="round"/>
<path d="M459.98 393.928H494.572" stroke="#263238" stroke-linecap="round" stroke-linejoin="round"/>
<path d="M375.184 393.928H447.237" stroke="#263238" stroke-linecap="round" stroke-linejoin="round"/>
<path d="M375.184 409.84H550.38" stroke="#263238" stroke-linecap="round" stroke-linejoin="round"/>
<path d="M524.627 425.785H550.38" stroke="#263238" stroke-linecap="round" stroke-linejoin="round"/>
<path d="M403.505 425.785H508.249" stroke="#263238" stroke-linecap="round" stroke-linejoin="round"/>
<path d="M375.184 425.785H388.928" stroke="#263238" stroke-linecap="round" stroke-linejoin="round"/>
<path d="M375.184 441.697H550.38" stroke="#263238" stroke-linecap="round" stroke-linejoin="round"/>
<path d="M550.38 467.316H510.984" stroke="#263238" stroke-linecap="round" stroke-linejoin="round"/>
<path d="M459.98 467.316H494.572" stroke="#263238" stroke-linecap="round" stroke-linejoin="round"/>
<path d="M375.184 467.316H447.237" stroke="#263238" stroke-linecap="round" stroke-linejoin="round"/>
<path d="M375.184 483.227H550.38" stroke="#263238" stroke-linecap="round" stroke-linejoin="round"/>
<path d="M550.38 499.172H524.627" stroke="#263238" stroke-linecap="round" stroke-linejoin="round"/>
<path d="M403.505 499.172H508.249" stroke="#263238" stroke-linecap="round" stroke-linejoin="round"/>
<path d="M375.184 499.172H388.928" stroke="#263238" stroke-linecap="round" stroke-linejoin="round"/>
<path d="M375.184 515.084H550.38" stroke="#263238" stroke-linecap="round" stroke-linejoin="round"/>
<path d="M175.303 420.147L154.588 466.849C142.247 461.354 132.593 451.183 127.751 438.571C122.909 425.959 123.275 411.941 128.769 399.599C132.723 390.533 139.262 382.834 147.569 377.465C155.875 372.095 165.58 369.294 175.47 369.41L175.303 420.147Z" fill="#2A9D8F"/>
<g opacity="0.47">
<path d="M175.303 420.147L154.588 466.849C142.247 461.354 132.593 451.183 127.751 438.571C122.909 425.959 123.275 411.941 128.769 399.599C132.723 390.533 139.262 382.834 147.569 377.465C155.875 372.095 165.58 369.294 175.47 369.41L175.303 420.147Z" fill="white"/>
</g>
<path d="M175.303 420.147L199.221 465.147C192.421 468.88 184.839 470.963 177.087 471.23C169.335 471.496 161.628 469.938 154.588 466.682L175.303 420.147Z" fill="#263238"/>
<path d="M175.303 420.147L214.899 387.99C219.122 393.199 222.274 399.191 224.175 405.621C226.075 412.051 226.687 418.794 225.974 425.461C225.261 432.129 223.238 438.589 220.021 444.473C216.803 450.356 212.455 455.545 207.227 459.743C204.7 461.81 201.973 463.62 199.087 465.147L175.303 420.147Z" fill="#2A9D8F"/>
<path d="M175.303 420.147V369.243C182.91 369.053 190.455 370.65 197.332 373.906C204.208 377.162 210.226 381.986 214.899 387.99L175.303 420.147Z" fill="#263238"/>
<path d="M175.303 447.968C190.613 447.968 203.024 435.557 203.024 420.248C203.024 404.938 190.613 392.527 175.303 392.527C159.994 392.527 147.583 404.938 147.583 420.248C147.583 435.557 159.994 447.968 175.303 447.968Z" fill="white"/>
<path d="M313.338 420.147L292.623 466.849C286.509 464.132 280.991 460.236 276.384 455.385C271.777 450.534 268.171 444.822 265.773 438.576C263.375 432.33 262.232 425.673 262.409 418.985C262.586 412.297 264.079 405.709 266.804 399.599C270.744 390.557 277.256 382.873 285.531 377.505C293.805 372.137 303.476 369.322 313.338 369.41V420.147Z" fill="#2A9D8F"/>
<g opacity="0.47">
<path d="M313.338 420.147L292.623 466.849C286.509 464.132 280.991 460.236 276.384 455.385C271.777 450.534 268.171 444.822 265.773 438.576C263.375 432.33 262.232 425.673 262.409 418.985C262.586 412.297 264.079 405.709 266.804 399.599C270.744 390.557 277.256 382.873 285.531 377.505C293.805 372.137 303.476 369.322 313.338 369.41V420.147Z" fill="white"/>
</g>
<path d="M313.339 420.147L337.323 465.147C330.523 468.88 322.941 470.963 315.189 471.23C307.437 471.496 299.73 469.938 292.69 466.682L313.339 420.147Z" fill="#263238"/>
<path d="M313.338 420.147L352.901 388.124C357.625 393.959 361.003 400.765 362.791 408.057C364.58 415.348 364.735 422.945 363.247 430.303C361.759 437.662 358.663 444.601 354.182 450.625C349.7 456.648 343.943 461.607 337.323 465.147L313.338 420.147Z" fill="#2A9D8F"/>
<path d="M313.338 420.147V369.243C320.94 369.053 328.48 370.65 335.352 373.906C342.223 377.163 348.234 381.987 352.901 387.99L313.338 420.147Z" fill="#263238"/>
<path d="M313.339 447.968C328.648 447.968 341.059 435.557 341.059 420.248C341.059 404.938 328.648 392.527 313.339 392.527C298.029 392.527 285.618 404.938 285.618 420.248C285.618 435.557 298.029 447.968 313.339 447.968Z" fill="white"/>
<path d="M128.569 329.714H455.81" stroke="#263238" stroke-linecap="round" stroke-linejoin="round"/>
<path d="M128.569 345.659H516.622" stroke="#263238" stroke-linecap="round" stroke-linejoin="round"/>
<path d="M860.709 658.19C860.709 658.19 844.53 676.937 846.231 680.339C847.933 683.742 861.576 692.248 862.41 687.011C864.005 678.844 865.119 670.59 865.746 662.293C865.846 656.422 866.68 654.854 860.709 658.19Z" fill="white" stroke="#263238" stroke-linecap="round" stroke-linejoin="round"/>
<path d="M869.248 618.16C869.248 618.16 858.174 642.011 857.306 647.148C856.439 652.285 861.576 659.057 861.576 661.625C861.576 664.194 854.904 671.833 854.904 683.775C854.904 695.717 854.037 722.971 864.278 729.776C874.519 736.581 891.531 728.942 891.531 728.942L907.71 760.465L972.458 722.971L963.084 708.493C963.084 708.493 976.728 671.8 966.42 643.746C956.112 615.692 919.719 611.355 905.075 610.388C890.431 609.42 874.385 607.852 869.248 618.16Z" fill="white"/>
<mask id="mask0_68_465" style="mask-type:luminance" maskUnits="userSpaceOnUse" x="854" y="609" width="119" height="152">
<path d="M869.248 618.16C869.248 618.16 858.174 642.011 857.306 647.148C856.439 652.285 861.576 659.057 861.576 661.625C861.576 664.194 854.904 671.833 854.904 683.775C854.904 695.717 854.037 722.971 864.278 729.776C874.519 736.581 891.531 728.942 891.531 728.942L907.71 760.465L972.458 722.971L963.084 708.493C963.084 708.493 976.728 671.8 966.42 643.746C956.112 615.692 919.719 611.355 905.075 610.388C890.431 609.42 874.385 607.852 869.248 618.16Z" fill="white"/>
</mask>
<g mask="url(#mask0_68_465)">
<path d="M962.951 708.393C962.951 708.393 976.594 671.7 966.287 643.646C955.979 615.592 919.586 611.255 904.942 610.288C902.573 610.288 900.138 609.987 897.703 609.887L878.822 624.832C878.822 624.832 863.278 647.081 869.949 655.955C876.621 664.828 881.057 673.768 878.822 688.212C876.587 702.656 861.843 727.641 876.621 728.241C879.656 728.241 884.46 728.775 890.164 729.342L891.398 728.842L891.732 729.509C913.548 731.711 946.672 736.014 946.672 736.014L950.008 735.847L972.391 722.871L962.951 708.393Z" fill="#2A9D8F"/>
<path opacity="0.5" d="M962.951 708.393C962.951 708.393 976.594 671.7 966.287 643.646C955.979 615.592 919.586 611.255 904.942 610.288C902.573 610.288 900.138 609.987 897.703 609.887L878.822 624.832C878.822 624.832 863.278 647.081 869.949 655.955C876.621 664.828 881.057 673.768 878.822 688.212C876.587 702.656 861.843 727.641 876.621 728.241C879.656 728.241 884.46 728.775 890.164 729.342L891.398 728.842L891.732 729.509C913.548 731.711 946.672 736.014 946.672 736.014L950.008 735.847L972.391 722.871L962.951 708.393Z" fill="white"/>
</g>
<path d="M869.248 618.16C869.248 618.16 858.174 642.011 857.306 647.148C856.439 652.285 861.576 659.057 861.576 661.625C861.576 664.194 854.904 671.833 854.904 683.775C854.904 695.717 854.037 722.971 864.278 729.776C874.519 736.581 891.531 728.942 891.531 728.942L907.71 760.465L972.458 722.971L963.084 708.493C963.084 708.493 976.728 671.8 966.42 643.746C956.112 615.692 919.719 611.355 905.075 610.388C890.431 609.42 874.385 607.852 869.248 618.16Z" stroke="#263238" stroke-linecap="round" stroke-linejoin="round"/>
<path d="M957.78 591.674C957.78 591.674 926.257 582.3 899.004 583.134C871.75 583.968 844.463 591.674 845.331 606.151C846.198 620.629 871.717 625.732 871.717 625.732C871.717 625.732 886.227 626.6 881.958 630.836C877.688 635.073 866.613 643.646 875.286 653.853C883.959 664.061 892.299 672.6 889.763 676.003C887.228 679.405 890.597 687.078 894 684.542C897.402 682.007 892.299 671.733 901.672 668.33C911.046 664.928 920.419 679.405 917.017 688.779C913.614 698.152 907.643 697.318 911.046 704.123C914.448 710.928 935.764 722.003 950.241 722.003C964.719 722.003 968.988 703.256 984.333 673.434C999.678 643.612 989.37 600.18 957.78 591.674Z" fill="#263238" stroke="#263238" stroke-linecap="round" stroke-linejoin="round"/>
<path d="M876.92 768.037L885.427 784.216L979.162 722.871L969.789 711.796C969.789 711.796 891.398 755.228 876.92 768.037Z" fill="white" stroke="#263238" stroke-linecap="round" stroke-linejoin="round"/>
<path d="M894.8 770.572C894.8 770.572 876.053 796.125 869.248 808.901C862.443 821.677 833.455 896.665 820.679 923.085C813.218 938.267 807.295 954.158 803 970.52H981.698C981.698 970.52 1002.15 868.545 1002.15 824.245C1002.15 779.946 991.939 746.722 988.503 738.215C985.067 729.709 972.324 722.871 972.324 722.871L894.8 770.572Z" fill="white"/>
<mask id="mask1_68_465" style="mask-type:luminance" maskUnits="userSpaceOnUse" x="802" y="722" width="201" height="249">
<path d="M894.8 770.572C894.8 770.572 876.053 796.125 869.248 808.901C862.443 821.677 833.455 896.665 820.679 923.085C813.218 938.267 807.295 954.158 803 970.52H981.698C981.698 970.52 1002.15 868.545 1002.15 824.245C1002.15 779.946 991.939 746.722 988.503 738.215C985.067 729.709 972.324 722.871 972.324 722.871L894.8 770.572Z" fill="white"/>
</mask>
<g mask="url(#mask1_68_465)">
<path d="M894.8 770.572C894.8 770.572 876.053 796.125 869.248 808.901C862.443 821.677 833.455 896.665 820.679 923.085C813.218 938.267 807.295 954.158 803 970.52H981.698C981.698 970.52 1002.15 868.545 1002.15 824.245C1002.15 779.946 991.939 746.722 988.503 738.215C985.067 729.709 972.324 722.871 972.324 722.871L894.8 770.572Z" fill="#BDBDBD" stroke="#263238" stroke-linecap="round" stroke-linejoin="round"/>
<path d="M845.798 866.41C845.798 866.41 885.827 803.73 900.905 787.518C915.983 771.306 990.771 732.945 990.771 732.945L978.963 720.135C978.963 720.135 902.006 758.33 890.097 770.172C878.188 782.014 843.663 852.333 845.798 866.41Z" fill="#BDBDBD" stroke="#263238" stroke-linecap="round" stroke-linejoin="round"/>
</g>
<path d="M894.8 770.572C894.8 770.572 876.053 796.125 869.248 808.901C862.443 821.677 833.455 896.665 820.679 923.085C813.218 938.267 807.295 954.158 803 970.52H981.698C981.698 970.52 1002.15 868.545 1002.15 824.245C1002.15 779.946 991.939 746.722 988.503 738.215C985.067 729.709 972.324 722.871 972.324 722.871L894.8 770.572Z" stroke="#263238" stroke-linecap="round" stroke-linejoin="round"/>
<path d="M944.204 770.572C944.204 770.572 897.503 801.262 890.531 813.171C883.559 825.079 889.697 843.86 889.697 846.528C889.697 849.197 883.025 857.603 883.025 860.172V868.678L846.332 967.518H929.726C929.726 967.518 965.519 880.62 972.324 863.574C979.129 846.528 982.565 815.873 979.163 798.827" stroke="#263238" stroke-linecap="round" stroke-linejoin="round"/>
<path d="M897.369 843.86C897.369 843.86 917.817 819.976 948.473 816.573" stroke="#263238" stroke-linecap="round" stroke-linejoin="round"/>
<path d="M1095.88 669.231C1095.88 669.231 1037.04 657.456 1020.56 671.566C1004.08 685.677 1013.49 771.64 1008.78 793.99C1004.08 816.339 992.306 839.89 997.009 863.407C1001.71 886.925 1012.32 903.437 1017.02 915.212C1021.73 926.988 1015.82 970.52 1015.82 970.52H1187.68C1187.68 970.52 1218.27 889.327 1218.27 828.115C1218.27 766.903 1199.42 713.964 1171.2 693.949C1142.98 673.935 1095.88 669.231 1095.88 669.231Z" fill="#2A9D8F"/>
<mask id="mask2_68_465" style="mask-type:luminance" maskUnits="userSpaceOnUse" x="995" y="664" width="224" height="307">
<path d="M1095.88 669.231C1095.88 669.231 1037.04 657.456 1020.56 671.566C1004.08 685.677 1013.49 771.64 1008.78 793.99C1004.08 816.339 992.306 839.89 997.009 863.407C1001.71 886.925 1012.32 903.437 1017.02 915.212C1021.73 926.988 1015.82 970.52 1015.82 970.52H1187.68C1187.68 970.52 1218.27 889.327 1218.27 828.115C1218.27 766.903 1199.42 713.964 1171.2 693.949C1142.98 673.935 1095.88 669.231 1095.88 669.231Z" fill="white"/>
</mask>
<g mask="url(#mask2_68_465)">
<path opacity="0.26" d="M1032.87 705.991C1016.19 733.812 1035.1 886.124 1039.54 900.602C1043.98 915.079 1011.75 901.702 1021.76 909.475C1031.77 917.247 1050.65 930.624 1050.65 930.624C1039.92 925.994 1028.96 921.908 1017.82 918.381C1018.41 921.865 1018.71 925.39 1018.72 928.922C1029.9 937.653 1041.64 945.621 1053.88 952.773L1017.36 955.842C1016.59 964.215 1015.72 970.453 1015.72 970.453H1187.58C1187.58 970.453 1218.17 889.26 1218.17 828.048C1218.36 802.558 1214.8 777.179 1207.6 752.726L1105.06 709.361C1105.06 709.361 1049.55 678.204 1032.87 705.991Z" fill="black"/>
</g>
<path d="M1095.88 669.231C1095.88 669.231 1037.04 657.456 1020.56 671.566C1004.08 685.677 1013.49 771.64 1008.78 793.99C1004.08 816.339 992.306 839.89 997.009 863.407C1001.71 886.925 1012.32 903.437 1017.02 915.212C1021.73 926.988 1015.82 970.52 1015.82 970.52H1187.68C1187.68 970.52 1218.27 889.327 1218.27 828.115C1218.27 766.903 1199.42 713.964 1171.2 693.949C1142.98 673.935 1095.88 669.231 1095.88 669.231Z" stroke="#263238" stroke-linecap="round" stroke-linejoin="round"/>
<path d="M1094.55 457.375C1094.55 457.375 1068.66 436.193 1043.94 451.504C1019.23 466.815 976.861 537.401 981.564 572.727C986.268 608.053 1028.67 640.977 1000.41 659.824C972.157 678.671 982.765 712.763 996.875 722.203L1005.11 723.371C1005.11 723.371 1005.11 689.246 1028.67 679.806C1052.22 670.365 1086.31 678.638 1094.55 689.246C1102.79 699.854 1087.51 753.96 1107.49 768.104C1127.47 782.248 1155.76 784.583 1149.89 798.693C1144.02 812.804 1123.97 835.187 1136.91 855.201C1149.85 875.216 1181.64 895.231 1192.25 888.126C1202.86 881.02 1187.55 872.848 1193.42 868.111C1199.29 863.374 1247.56 846.929 1239.32 826.914C1231.08 806.899 1213.44 796.291 1221.67 788.052C1229.91 779.813 1260.5 759.831 1256.97 731.577C1253.43 703.323 1186.35 682.141 1184.01 651.518C1181.68 620.895 1224.04 617.393 1209.9 548.108C1195.76 478.824 1152.36 448.035 1131.24 448.035C1118.42 448.002 1105.79 451.215 1094.55 457.375Z" fill="#263238" stroke="#263238" stroke-linecap="round" stroke-linejoin="round"/>
<path d="M1117.43 494.302C1135.18 518.92 1157.46 555.18 1158.23 582.601C1159.33 628.268 1119.23 647.215 1125.9 682.841C1132.58 718.467 1210.47 724.605 1216.14 756.229C1221.81 787.852 1186.12 776.243 1194.96 794.09C1203.79 811.936 1238.32 827.448 1223.94 847.462" stroke="white" stroke-linecap="round" stroke-linejoin="round"/>
<path d="M1095.85 466.782C1095.85 466.782 1099.58 471.052 1105.22 478.19" stroke="white" stroke-linecap="round" stroke-linejoin="round"/>
<path d="M1078.2 647.315C1082.27 651.585 1084.71 655.554 1084.71 659.457" stroke="white" stroke-linecap="round" stroke-linejoin="round"/>
<path d="M1010.09 511.415C1010.09 511.415 992.272 560.417 1018.99 593.842C1033.24 611.655 1050.95 624.698 1064.39 635.373" stroke="white" stroke-linecap="round" stroke-linejoin="round"/>
<path d="M1170.5 714.464C1175.67 716.332 1181.31 717.8 1187.18 719.602" stroke="white" stroke-linecap="round" stroke-linejoin="round"/>
<path d="M1177.14 501.407C1177.14 501.407 1215 549.309 1201.66 590.506C1188.32 631.703 1143.75 653.886 1143.75 680.573C1143.29 688.722 1146 696.732 1151.32 702.923" stroke="white" stroke-linecap="round" stroke-linejoin="round"/>
<path d="M727.143 931.291C727.143 931.291 720.071 939.997 720.071 945.435C720.071 950.872 717.369 961.713 720.639 962.28C723.908 962.847 726.043 950.839 729.312 946.502C732.581 942.166 740.72 941.065 740.186 935.094C739.653 929.123 732.047 923.685 727.143 931.291Z" fill="white" stroke="#263238" stroke-linecap="round" stroke-linejoin="round"/>
<path d="M805.434 938.896C805.434 938.896 774.979 913.344 767.373 910.642C759.767 907.94 744.523 925.32 735.283 942.165C726.043 959.011 730.946 962.814 735.85 963.348C740.753 963.882 761.936 954.675 761.936 954.675C769.443 960.644 778.164 964.901 787.488 967.151C802.165 970.486 823.348 961.713 823.915 953.04C824.482 944.367 805.434 938.896 805.434 938.896Z" fill="white" stroke="#263238" stroke-linecap="round" stroke-linejoin="round"/>
<path d="M1088.81 764.468C1088.81 764.468 1089.98 942.266 1085.27 956.409C1080.57 970.553 1064.09 970.52 1037.04 971.687C1009.99 972.855 845.197 968.185 845.197 968.185C835.838 969.563 826.401 970.343 816.943 970.52C804 970.52 781.617 968.185 773.377 962.28C765.138 956.376 758.099 955.209 754.563 956.409C751.027 957.61 741.621 969.352 733.381 969.352C725.142 969.352 715.702 965.816 721.606 964.649C727.51 963.481 759.267 929.323 766.339 929.323C773.411 929.323 823.981 942.266 833.422 941.098C842.862 939.931 1011.15 906.973 1011.15 906.973L1005.28 723.504C1005.28 723.504 999.377 691.714 1028.83 679.939" fill="#2A9D8F"/>
<mask id="mask3_68_465" style="mask-type:luminance" maskUnits="userSpaceOnUse" x="719" y="679" width="370" height="293">
<path d="M1088.81 764.468C1088.81 764.468 1089.98 942.266 1085.27 956.409C1080.57 970.553 1064.09 970.52 1037.04 971.687C1009.99 972.855 845.197 968.185 845.197 968.185C835.838 969.563 826.401 970.343 816.943 970.52C804 970.52 781.617 968.185 773.377 962.28C765.138 956.376 758.099 955.209 754.563 956.409C751.027 957.61 741.621 969.352 733.381 969.352C725.142 969.352 715.702 965.816 721.606 964.649C727.51 963.481 759.267 929.323 766.339 929.323C773.411 929.323 823.981 942.266 833.422 941.098C842.862 939.931 1011.15 906.973 1011.15 906.973L1005.28 723.504C1005.28 723.504 999.377 691.714 1028.83 679.939" fill="white"/>
</mask>
<g mask="url(#mask3_68_465)">
<path opacity="0.26" d="M1041.91 697.585C1038.16 699.468 1035.02 702.385 1032.87 705.991C1016.19 733.812 1035.1 886.124 1039.54 900.602C1043.98 915.079 1011.75 901.702 1021.76 909.475C1031.77 917.247 1050.65 930.624 1050.65 930.624C1050.65 930.624 996.175 907.273 1010.62 921.717C1025.06 936.161 1053.98 952.84 1053.98 952.84L863.844 968.685C907.81 969.886 1015.49 972.621 1036.94 971.687C1063.99 970.52 1080.47 970.52 1085.17 956.409C1089.88 942.299 1088.71 761.032 1088.71 761.032L1041.91 697.585Z" fill="black"/>
</g>
<path d="M1088.81 764.468C1088.81 764.468 1089.98 942.266 1085.27 956.409C1080.57 970.553 1064.09 970.52 1037.04 971.687C1009.99 972.855 845.197 968.185 845.197 968.185C835.838 969.563 826.401 970.343 816.943 970.52C804 970.52 781.617 968.185 773.377 962.28C765.138 956.376 758.099 955.209 754.563 956.409C751.027 957.61 741.621 969.352 733.381 969.352C725.142 969.352 715.702 965.816 721.606 964.649C727.51 963.481 759.267 929.323 766.339 929.323C773.411 929.323 823.981 942.266 833.422 941.098C842.862 939.931 1011.15 906.973 1011.15 906.973L1005.28 723.504C1005.28 723.504 999.377 691.714 1028.83 679.939" stroke="#263238" stroke-linecap="round" stroke-linejoin="round"/>
<path d="M894.2 969.486C890.57 956.183 891.378 942.059 896.501 929.256C864.344 935.461 837.058 940.631 833.422 941.098C823.981 942.266 773.377 929.323 766.339 929.323C759.3 929.323 727.61 963.448 721.606 964.649C715.601 965.85 725.142 969.352 733.381 969.352C741.621 969.352 751.028 957.577 754.563 956.409C758.099 955.242 765.138 956.409 773.377 962.28C781.617 968.151 804 970.52 816.943 970.52C826.401 970.343 835.838 969.563 845.197 968.185L894.2 969.486Z" fill="white" stroke="#263238" stroke-linecap="round" stroke-linejoin="round"/>
<path d="M739.652 918.782C734.499 921.836 730.197 926.138 727.143 931.291C723.807 938.363 727.143 960.079 732.58 960.079C738.018 960.079 741.821 954.108 741.821 946.502C741.821 938.897 739.652 918.782 739.652 918.782Z" fill="white" stroke="#263238" stroke-linecap="round" stroke-linejoin="round"/>
<path d="M747.258 914.445C747.258 914.445 738.552 914.979 735.283 921.517C732.014 928.055 732.581 955.742 738.018 956.843C743.455 957.944 745.624 948.67 745.624 942.699C745.624 936.728 747.258 914.445 747.258 914.445Z" fill="white" stroke="#263238" stroke-linecap="round" stroke-linejoin="round"/>
<path d="M767.373 910.642C767.373 910.642 754.33 908.441 748.893 912.277C743.455 916.113 742.221 949.771 746.157 952.473C750.094 955.175 756.498 948.137 756.498 944.334C756.498 940.531 764.104 919.882 764.104 919.882" fill="white"/>
<path d="M767.373 910.642C767.373 910.642 754.33 908.441 748.893 912.277C743.455 916.113 742.221 949.771 746.157 952.473C750.094 955.175 756.498 948.137 756.498 944.334C756.498 940.531 764.104 919.882 764.104 919.882" stroke="#263238" stroke-linecap="round" stroke-linejoin="round"/>
<mask id="mask4_68_465" style="mask-type:luminance" maskUnits="userSpaceOnUse" x="211" y="381" width="550" height="590">
<path d="M760.402 381.252H211.297V970.787H760.402V381.252Z" fill="white"/>
</mask>
<g mask="url(#mask4_68_465)">
<path d="M440.733 799.394C440.733 799.394 425.121 823.078 431.693 834.586C438.264 846.095 462.115 869.912 511.385 866.61C560.654 863.308 531.099 780.38 536.837 729.442C542.574 678.505 521.259 671.133 503.979 684.276C486.7 697.419 465.384 760.665 457.278 771.34C450.971 780.201 445.435 789.586 440.733 799.394Z" fill="#2A9D8F"/>
<mask id="mask5_68_465" style="mask-type:luminance" maskUnits="userSpaceOnUse" x="430" y="678" width="111" height="189">
<path d="M440.733 799.394C440.733 799.394 425.121 823.078 431.693 834.586C438.264 846.095 462.115 869.912 511.385 866.61C560.654 863.308 531.099 780.38 536.837 729.442C542.574 678.505 521.259 671.133 503.979 684.276C486.7 697.419 465.384 760.665 457.278 771.34C450.971 780.201 445.435 789.586 440.733 799.394Z" fill="white"/>
</mask>
<g mask="url(#mask5_68_465)">
<path opacity="0.42" d="M440.733 799.394C440.733 799.394 425.121 823.078 431.693 834.586C438.264 846.095 462.115 869.912 511.385 866.61C560.654 863.308 531.099 780.38 536.837 729.442C542.574 678.505 521.259 671.133 503.979 684.276C486.7 697.419 465.384 760.665 457.278 771.34C450.971 780.201 445.435 789.586 440.733 799.394Z" fill="black" stroke="#263238" stroke-linecap="round" stroke-linejoin="round"/>
</g>
<path d="M440.733 799.394C440.733 799.394 425.121 823.078 431.693 834.586C438.264 846.095 462.115 869.912 511.385 866.61C560.654 863.308 531.099 780.38 536.837 729.442C542.574 678.505 521.259 671.133 503.979 684.276C486.7 697.419 465.384 760.665 457.278 771.34C450.971 780.201 445.435 789.586 440.733 799.394Z" stroke="#263238" stroke-linecap="round" stroke-linejoin="round"/>
<path d="M500.777 813.237C500.777 813.237 500.777 886.325 501.611 909.341C502.445 932.358 505.714 988.2 505.714 988.2H660.128L651.922 821.41L649.453 813.204L500.777 813.237Z" fill="#263238" stroke="#263238" stroke-linecap="round" stroke-linejoin="round"/>
<path d="M590.543 832.585L652.522 835.087L651.855 821.443L649.386 813.237H589.576L590.543 832.585Z" fill="white" stroke="#263238" stroke-linecap="round" stroke-linejoin="round"/>
<path d="M517.122 813.237H500.777C500.777 813.237 500.777 819.542 500.777 829.016L517.156 829.649L517.122 813.237Z" fill="white" stroke="#263238" stroke-linecap="round" stroke-linejoin="round"/>
<path d="M522.36 813.237L523.294 829.916L579.402 832.151L578.835 813.237H522.36Z" fill="white" stroke="#263238" stroke-linecap="round" stroke-linejoin="round"/>
<path d="M501.544 686.711C501.544 686.711 500.71 781.18 501.544 795.991C502.378 810.802 494.873 815.706 507.282 818.174C519.691 820.643 619.831 823.078 629.672 821.51C639.513 819.942 639.679 814.838 642.014 810.002C644.349 805.165 677.307 593.976 669.935 588.205C662.563 582.434 615.728 565.221 611.592 565.221C607.456 565.221 546.711 568.557 535.202 570.158C523.694 571.759 510.551 568.49 509.75 575.062C508.95 581.633 501.544 686.711 501.544 686.711Z" fill="white"/>
<mask id="mask6_68_465" style="mask-type:luminance" maskUnits="userSpaceOnUse" x="500" y="565" width="172" height="258">
<path d="M501.544 686.711C501.544 686.711 500.71 781.18 501.544 795.991C502.378 810.802 494.873 815.706 507.282 818.174C519.691 820.643 619.831 823.078 629.672 821.51C639.513 819.942 639.679 814.838 642.014 810.002C644.349 805.165 677.307 593.976 669.935 588.205C662.563 582.434 615.728 565.221 611.592 565.221C607.456 565.221 546.711 568.557 535.202 570.158C523.694 571.759 510.551 568.49 509.75 575.062C508.95 581.633 501.544 686.711 501.544 686.711Z" fill="white"/>
</mask>
<g mask="url(#mask6_68_465)">
<path d="M551.881 596.511C551.881 596.511 532.634 595.577 528.964 597.412C526.896 598.446 514.287 629.402 503.712 656.088C502.478 673.468 501.544 686.711 501.544 686.711C501.544 686.711 500.71 781.18 501.544 795.991C502.078 805.698 499.109 811.136 500.443 814.438C504.613 799.961 511.251 774.976 518.89 739.45C531.733 679.872 551.881 596.511 551.881 596.511Z" fill="#BDBDBD"/>
</g>
<path d="M501.544 686.711C501.544 686.711 500.71 781.18 501.544 795.991C502.378 810.802 494.873 815.706 507.282 818.174C519.691 820.643 619.831 823.078 629.672 821.51C639.513 819.942 639.679 814.838 642.014 810.002C644.349 805.165 677.307 593.976 669.935 588.205C662.563 582.434 615.728 565.221 611.592 565.221C607.456 565.221 546.711 568.557 535.202 570.158C523.694 571.759 510.551 568.49 509.75 575.062C508.95 581.633 501.544 686.711 501.544 686.711Z" stroke="#263238" stroke-linecap="round" stroke-linejoin="round"/>
<path d="M330.652 634.839C330.652 634.839 301.097 620.061 290.422 617.593C279.748 615.124 245.222 606.918 242.754 610.187C240.285 613.457 243.588 616.859 246.89 616.859C250.192 616.859 271.508 625.899 271.508 625.899C271.508 625.899 269.073 645.614 269.073 650.551C269.073 655.488 295.359 665.328 301.097 666.162C306.834 666.996 318.409 662.593 318.409 662.593L326.549 660.391L330.652 634.839Z" fill="white" stroke="#263238" stroke-linecap="round" stroke-linejoin="round"/>
<path d="M269.073 629.235C269.073 629.235 265.737 651.418 268.239 653.853C270.741 656.288 287.954 667.83 290.422 662.093C292.891 656.355 292.057 634.139 292.057 631.703C292.057 629.268 269.073 629.235 269.073 629.235Z" fill="white" stroke="#263238" stroke-linecap="round" stroke-linejoin="round"/>
<path d="M320.811 635.806C320.811 635.806 292.89 625.132 286.319 625.132C279.747 625.132 269.073 634.139 263.302 635.806C257.531 637.474 264.936 642.478 269.073 641.544C273.209 640.61 284.651 637.441 284.651 637.441C287.206 642.327 290.874 646.543 295.359 649.75C302.03 653.853 315.874 651.418 315.874 651.418" fill="white"/>
<path d="M320.811 635.806C320.811 635.806 292.89 625.132 286.319 625.132C279.747 625.132 269.073 634.139 263.302 635.806C257.531 637.474 264.936 642.478 269.073 641.544C273.209 640.61 284.651 637.441 284.651 637.441C287.206 642.327 290.874 646.543 295.359 649.75C302.03 653.853 315.874 651.418 315.874 651.418" stroke="#263238" stroke-linecap="round" stroke-linejoin="round"/>
<path d="M571.162 564.587C571.162 564.587 521.892 560.351 511.885 562.552C501.878 564.754 478.527 621.496 475.191 629.268C471.856 637.041 435.162 672.634 435.162 672.634L329.551 631.503L318.409 662.626C318.409 662.626 404.039 718.234 418.483 724.905C432.927 731.577 452.975 730.476 459.647 730.476C464.547 729.977 469.189 728.039 472.99 724.905L440.733 799.394C440.733 799.394 493.005 737.148 508.549 707.126C524.094 677.104 559.72 589.239 563.056 587.037C566.392 584.836 571.162 564.587 571.162 564.587Z" fill="#2A9D8F"/>
<mask id="mask7_68_465" style="mask-type:luminance" maskUnits="userSpaceOnUse" x="318" y="561" width="254" height="239">
<path d="M571.162 564.587C571.162 564.587 521.892 560.351 511.885 562.552C501.878 564.754 478.527 621.496 475.191 629.268C471.856 637.041 435.162 672.634 435.162 672.634L329.551 631.503L318.409 662.626C318.409 662.626 404.039 718.234 418.483 724.905C432.927 731.577 452.975 730.476 459.647 730.476C464.547 729.977 469.189 728.039 472.99 724.905L440.733 799.394C440.733 799.394 493.005 737.148 508.549 707.126C524.094 677.104 559.72 589.239 563.056 587.037C566.392 584.836 571.162 564.587 571.162 564.587Z" fill="white"/>
</mask>
<g mask="url(#mask7_68_465)">
<path opacity="0.26" d="M457.112 693.649C454.443 693.649 450.874 691.881 447.304 691.881C443.735 691.881 451.774 705.224 449.973 709.761C448.172 714.298 320.411 659.724 320.411 659.724L320.177 663.76C332.253 671.6 405.24 718.801 418.483 724.905C432.96 731.577 452.975 730.476 459.647 730.476C464.019 730.126 468.198 728.528 471.689 725.873C481.429 701.021 488.368 659.724 488.368 659.724C488.368 659.724 459.814 693.649 457.112 693.649Z" fill="black"/>
</g>
<path d="M571.162 564.587C571.162 564.587 521.892 560.351 511.885 562.552C501.878 564.754 478.527 621.496 475.191 629.268C471.856 637.041 435.162 672.634 435.162 672.634L329.551 631.503L318.409 662.626C318.409 662.626 404.039 718.234 418.483 724.905C432.927 731.577 452.975 730.476 459.647 730.476C464.547 729.977 469.189 728.039 472.99 724.905L440.733 799.394C440.733 799.394 493.005 737.148 508.549 707.126C524.094 677.104 559.72 589.239 563.056 587.037C566.392 584.836 571.162 564.587 571.162 564.587Z" stroke="#263238" stroke-linecap="round" stroke-linejoin="round"/>
<path d="M571.162 564.587L557.485 577.564L558.186 603.516L572.596 589.806L571.162 564.587Z" fill="white" stroke="#263238" stroke-linecap="round" stroke-linejoin="round"/>
<path d="M545.21 438.027C545.21 438.027 530.466 460.711 531.4 465.448C532.334 470.184 534.735 475.021 534.735 478.791C534.735 482.56 518.056 495.837 519.991 498.805C521.926 501.774 531.366 506.378 531.366 506.378C531.366 506.378 530.966 543.372 539.472 548.108C547.978 552.845 564.157 545.24 564.157 545.24L572.663 592.675L621.032 558.516V524.391C621.032 524.391 649.487 492.167 651.388 466.548C653.289 440.929 618.03 412.508 583.104 407.772C548.179 403.035 529.064 426.719 534.735 434.458C540.406 442.197 545.21 438.027 545.21 438.027Z" fill="white"/>
<mask id="mask8_68_465" style="mask-type:luminance" maskUnits="userSpaceOnUse" x="519" y="407" width="133" height="186">
<path d="M545.21 438.027C545.21 438.027 530.466 460.711 531.4 465.448C532.334 470.184 534.735 475.021 534.735 478.791C534.735 482.56 518.056 495.837 519.991 498.805C521.926 501.774 531.366 506.378 531.366 506.378C531.366 506.378 530.966 543.372 539.472 548.108C547.978 552.845 564.157 545.24 564.157 545.24L572.663 592.675L621.032 558.516V524.391C621.032 524.391 649.487 492.167 651.388 466.548C653.289 440.929 618.03 412.508 583.104 407.772C548.179 403.035 529.064 426.719 534.735 434.458C540.406 442.197 545.21 438.027 545.21 438.027Z" fill="white"/>
</mask>
<g mask="url(#mask8_68_465)">
<path d="M603.019 571.259L621.066 558.516V524.391C621.066 524.391 649.52 492.167 651.422 466.548C652.656 449.869 638.078 431.889 618.064 420.114L567.76 440.963C567.76 440.963 544.142 461.711 547.245 464.514C550.347 467.316 559.42 478.924 557.252 484.261C557.252 484.261 548.813 487.597 549.68 493.368C550.547 499.139 570.195 536.733 570.195 536.733L564.157 545.24L603.019 571.259Z" fill="#2A9D8F"/>
<path opacity="0.5" d="M603.019 571.259L621.066 558.516V524.391C621.066 524.391 649.52 492.167 651.422 466.548C652.656 449.869 638.078 431.889 618.064 420.114L567.76 440.963C567.76 440.963 544.142 461.711 547.245 464.514C550.347 467.316 559.42 478.924 557.252 484.261C557.252 484.261 548.813 487.597 549.68 493.368C550.547 499.139 570.195 536.733 570.195 536.733L564.157 545.24L603.019 571.259Z" fill="white"/>
</g>
<path d="M545.21 438.027C545.21 438.027 530.466 460.711 531.4 465.448C532.334 470.184 534.735 475.021 534.735 478.791C534.735 482.56 518.056 495.837 519.991 498.805C521.926 501.774 531.366 506.378 531.366 506.378C531.366 506.378 530.966 543.372 539.472 548.108C547.978 552.845 564.157 545.24 564.157 545.24L572.663 592.675L621.032 558.516V524.391C621.032 524.391 649.487 492.167 651.388 466.548C653.289 440.929 618.03 412.508 583.104 407.772C548.179 403.035 529.064 426.719 534.735 434.458C540.406 442.197 545.21 438.027 545.21 438.027Z" stroke="#263238" stroke-linecap="round" stroke-linejoin="round"/>
<path d="M620.632 565.955C620.632 565.955 609.958 603.749 596.815 651.418C583.672 699.086 586.14 846.895 586.14 855.135C586.14 863.374 605.021 892.896 626.403 901.135C640.375 906.266 654.95 909.574 669.768 910.976C669.768 910.976 654.991 813.237 654.991 785.317C654.991 757.396 668.134 713.831 668.134 713.831C668.134 713.831 687.848 763.134 696.054 769.705C704.261 776.277 737.118 783.649 736.317 753.26C735.517 722.871 707.563 614.424 700.157 603.749C692.752 593.075 657.426 582.4 657.426 582.4L620.632 565.955Z" fill="#2A9D8F"/>
<mask id="mask9_68_465" style="mask-type:luminance" maskUnits="userSpaceOnUse" x="585" y="565" width="152" height="346">
<path d="M620.632 565.955C620.632 565.955 609.958 603.749 596.815 651.418C583.672 699.086 586.14 846.895 586.14 855.135C586.14 863.374 605.021 892.896 626.403 901.135C640.375 906.266 654.95 909.574 669.768 910.976C669.768 910.976 654.991 813.237 654.991 785.317C654.991 757.396 668.134 713.831 668.134 713.831C668.134 713.831 687.848 763.134 696.054 769.705C704.261 776.277 737.118 783.649 736.317 753.26C735.517 722.871 707.563 614.424 700.157 603.749C692.752 593.075 657.426 582.4 657.426 582.4L620.632 565.955Z" fill="white"/>
</mask>
<g mask="url(#mask9_68_465)">
<g opacity="0.26">
<path d="M655.158 785.317C636.477 790.154 621.533 793.623 621.533 793.623C621.533 793.623 644.416 839.423 653.59 839.423H660.061C657.359 817.207 655.158 796.058 655.158 785.317Z" fill="black"/>
<path d="M672.837 649.65C682.845 660.625 703.96 655.154 703.96 658.823C703.96 662.493 687.481 670.732 693.953 683.542C700.424 696.351 737.952 751.358 726.944 761.432C723.775 764.335 713.601 768.104 700.858 772.307C712.8 777.578 737.251 779.546 736.551 753.26C735.717 722.871 707.796 614.424 700.391 603.749C700.324 603.749 662.73 638.642 672.837 649.65Z" fill="black"/>
<path d="M646.151 662.493C643.393 664.895 641.392 668.046 640.391 671.563C639.391 675.081 639.433 678.813 640.513 682.307C644.283 694.55 658.426 706.825 654.657 713.43C650.887 720.035 622.567 715.332 623.534 724.772C624.501 734.212 653.723 765.335 653.723 765.335L665.965 709.661L646.151 662.493Z" fill="black"/>
</g>
</g>
<path d="M620.632 565.955C620.632 565.955 609.958 603.749 596.815 651.418C583.672 699.086 586.14 846.895 586.14 855.135C586.14 863.374 605.021 892.896 626.403 901.135C640.375 906.266 654.95 909.574 669.768 910.976C669.768 910.976 654.991 813.237 654.991 785.317C654.991 757.396 668.134 713.831 668.134 713.831C668.134 713.831 687.848 763.134 696.054 769.705C704.261 776.277 737.118 783.649 736.317 753.26C735.517 722.871 707.563 614.424 700.157 603.749C692.752 593.075 657.426 582.4 657.426 582.4L620.632 565.955Z" stroke="#263238" stroke-linecap="round" stroke-linejoin="round"/>
<path d="M620.932 549.443L578.368 579.698L581.27 606.385L628.138 563.853L620.932 549.443Z" fill="white" stroke="#263238" stroke-linecap="round" stroke-linejoin="round"/>
<path d="M634.609 771.34C634.609 771.34 603.386 757.363 600.917 757.363C598.449 757.363 573.831 770.506 568.894 770.506C563.957 770.506 561.488 773.842 564.791 776.277C567.53 777.892 570.651 778.744 573.831 778.745C573.831 778.745 562.322 785.417 563.123 788.586C563.924 791.755 570.528 794.323 570.528 794.323C573.902 799.498 578.78 803.514 584.505 805.832C592.711 808.3 621.466 798.46 621.466 798.46L643.649 796.792L634.609 771.34Z" fill="white"/>
<mask id="mask10_68_465" style="mask-type:luminance" maskUnits="userSpaceOnUse" x="563" y="757" width="81" height="50">
<path d="M634.609 771.34C634.609 771.34 603.386 757.363 600.917 757.363C598.449 757.363 573.831 770.506 568.894 770.506C563.957 770.506 561.488 773.842 564.791 776.277C567.53 777.892 570.651 778.744 573.831 778.745C573.831 778.745 562.322 785.417 563.123 788.586C563.924 791.755 570.528 794.323 570.528 794.323C573.902 799.498 578.78 803.514 584.505 805.832C592.711 808.3 621.466 798.46 621.466 798.46L643.649 796.792L634.609 771.34Z" fill="white"/>
</mask>
<g mask="url(#mask10_68_465)">
<path d="M600.851 771.607C590.843 773.842 570.528 794.323 570.528 794.323C573.902 799.498 578.78 803.514 584.505 805.832C592.711 808.3 621.466 798.46 621.466 798.46L643.649 796.792L634.609 771.34C634.609 771.34 610.858 769.372 600.851 771.607Z" fill="#2A9D8F"/>
<path opacity="0.5" d="M600.851 771.607C590.843 773.842 570.528 794.323 570.528 794.323C573.902 799.498 578.78 803.514 584.505 805.832C592.711 808.3 621.466 798.46 621.466 798.46L643.649 796.792L634.609 771.34C634.609 771.34 610.858 769.372 600.851 771.607Z" fill="white"/>
</g>
<path d="M634.609 771.34C634.609 771.34 603.386 757.363 600.917 757.363C598.449 757.363 573.831 770.506 568.894 770.506C563.957 770.506 561.488 773.842 564.791 776.277C567.53 777.892 570.651 778.744 573.831 778.745C573.831 778.745 562.322 785.417 563.123 788.586C563.924 791.755 570.528 794.323 570.528 794.323C573.902 799.498 578.78 803.514 584.505 805.832C592.711 808.3 621.466 798.46 621.466 798.46L643.649 796.792L634.609 771.34Z" stroke="#263238" stroke-linecap="round" stroke-linejoin="round"/>
<path d="M709.364 736.014L632.141 767.237L637.878 800.094C637.878 800.094 741.288 785.317 746.325 777.911C751.362 770.506 732.348 728.608 732.348 728.608" fill="#2A9D8F"/>
<mask id="mask11_68_465" style="mask-type:luminance" maskUnits="userSpaceOnUse" x="632" y="728" width="116" height="73">
<path d="M709.364 736.014L632.141 767.237L637.878 800.094C637.878 800.094 741.288 785.317 746.325 777.911C751.362 770.506 732.348 728.608 732.348 728.608" fill="white"/>
</mask>
<g mask="url(#mask11_68_465)">
<path opacity="0.26" d="M636.11 789.987L637.878 799.994C637.878 799.994 741.288 785.217 746.325 777.811C751.362 770.406 732.348 728.508 732.348 728.508L721.306 732.077C727.678 745.421 731.314 757.163 726.877 761.332C718.604 769.005 663.064 783.349 636.11 789.987Z" fill="black"/>
</g>
<path d="M709.364 736.014L632.141 767.237L637.878 800.094C637.878 800.094 741.288 785.317 746.325 777.911C751.362 770.506 732.348 728.608 732.348 728.608" stroke="#263238" stroke-linecap="round" stroke-linejoin="round"/>
<path d="M472.99 724.905C472.99 724.905 488.401 665.362 493.305 632.504Z" fill="white"/>
<path d="M472.99 724.905C472.99 724.905 488.401 665.362 493.305 632.504" stroke="#263238" stroke-linecap="round" stroke-linejoin="round"/>
<path d="M540.974 895.898L563.123 914.378L566.826 988.3" stroke="white" stroke-linecap="round" stroke-linejoin="round"/>
<path d="M668.3 713.831L646.484 673.801C646.484 673.801 640.18 665.395 652.789 644.379" stroke="#263238" stroke-linecap="round" stroke-linejoin="round"/>
<path d="M583.138 407.772C548.045 403.035 529.098 426.719 534.769 434.458C536.175 436.664 538.331 438.287 540.84 439.028L545.21 438.227C545.21 438.227 577.434 439.195 575.566 449.603C573.697 460.01 554.683 461.011 562.222 469.617C564.211 471.806 566.451 473.755 568.894 475.422H567.793C569.838 477.152 571.4 479.381 572.33 481.893C573.631 485.796 566.492 518.22 565.191 520.822C563.89 523.424 556.752 520.155 547.678 513.683C542.943 510.007 537.375 507.555 531.466 506.544L530.833 512.382C530.833 512.382 539.906 514.984 541.207 520.155C542.508 525.325 534.068 525.992 534.068 530.562C534.068 535.132 533.434 543.272 539.572 548.275C545.71 553.279 564.257 545.406 564.257 545.406C564.257 545.406 578.167 535.733 580.136 525.392C581.703 516.919 582.871 502.041 584.305 494.636C586.367 492.135 588.219 489.468 589.843 486.663C589.843 486.663 605.021 482.86 600.284 498.038C595.547 513.216 586.04 513.216 586.04 513.216C596.805 519.413 608.725 523.341 621.066 524.758V524.524C621.066 524.524 649.52 492.301 651.421 466.682C653.323 441.063 618.23 412.508 583.138 407.772Z" fill="#263238" stroke="#263238" stroke-linecap="round" stroke-linejoin="round"/>
</g>
<path d="M672.704 887.759H616.529V970.753H672.704V887.759Z" fill="white" stroke="#263238" stroke-linecap="round" stroke-linejoin="round"/>
<path d="M670.202 959.478H664.231C663.001 959.478 661.822 958.99 660.952 958.12C660.083 957.251 659.594 956.071 659.594 954.842C659.594 953.612 660.083 952.433 660.952 951.563C661.822 950.693 663.001 950.205 664.231 950.205H670.102C672.429 950.205 674.66 949.281 676.305 947.635C677.951 945.99 678.875 943.759 678.875 941.432V921.417C678.875 919.087 677.952 916.852 676.307 915.202C674.663 913.551 672.432 912.619 670.102 912.611H662.563C661.923 912.665 661.279 912.586 660.672 912.378C660.064 912.171 659.506 911.84 659.033 911.405C658.56 910.971 658.183 910.443 657.925 909.855C657.667 909.268 657.533 908.633 657.533 907.991C657.533 907.348 657.667 906.713 657.925 906.126C658.183 905.538 658.56 905.01 659.033 904.576C659.506 904.141 660.064 903.81 660.672 903.603C661.279 903.395 661.923 903.316 662.563 903.37H670.102C672.472 903.37 674.818 903.837 677.008 904.744C679.197 905.651 681.187 906.98 682.863 908.656C684.538 910.332 685.868 912.321 686.775 914.511C687.682 916.7 688.148 919.047 688.148 921.417V941.432C688.14 946.198 686.249 950.768 682.888 954.148C679.527 957.527 674.968 959.443 670.202 959.478Z" fill="white" stroke="#263238" stroke-linecap="round" stroke-linejoin="round"/>
<path d="M374.951 969.653H222.305C221.726 969.656 221.159 969.491 220.673 969.177C220.187 968.863 219.804 968.414 219.569 967.885L177.205 871.68C177.004 871.227 176.921 870.73 176.961 870.236C177.002 869.742 177.166 869.266 177.438 868.851C177.71 868.436 178.081 868.096 178.518 867.862C178.956 867.628 179.444 867.507 179.94 867.511H332.586C333.164 867.512 333.728 867.683 334.209 868.004C334.69 868.324 335.065 868.779 335.288 869.312L377.553 965.683C377.716 966.116 377.775 966.581 377.725 967.041C377.674 967.501 377.515 967.943 377.262 968.33C377.008 968.717 376.666 969.038 376.265 969.268C375.863 969.498 375.413 969.63 374.951 969.653Z" fill="white" stroke="#263238" stroke-linecap="round" stroke-linejoin="round"/>
<path d="M360.674 962.147H230.378C229.89 962.144 229.414 962.001 229.006 961.735C228.597 961.469 228.275 961.091 228.076 960.646L192.016 878.352C191.844 877.967 191.771 877.545 191.803 877.124C191.835 876.704 191.971 876.298 192.2 875.944C192.429 875.589 192.742 875.298 193.112 875.095C193.481 874.892 193.896 874.785 194.318 874.783H324.58C325.075 874.79 325.558 874.938 325.971 875.21C326.385 875.482 326.712 875.866 326.915 876.317L362.975 958.544C363.155 958.931 363.234 959.356 363.205 959.781C363.177 960.207 363.042 960.618 362.812 960.977C362.583 961.336 362.267 961.631 361.893 961.836C361.519 962.04 361.1 962.147 360.674 962.147Z" fill="#263238" stroke="#263238" stroke-linecap="round" stroke-linejoin="round"/>
<path d="M220.17 970.787H449.506V963.281H220.17V970.787Z" fill="white" stroke="#263238" stroke-linecap="round" stroke-linejoin="round"/>
<path d="M220.17 970.787H331.352V963.281H220.17V970.787Z" fill="white" stroke="#263238" stroke-linecap="round" stroke-linejoin="round"/>
<path d="M11.6495 784.082C16.4229 785.35 21.3582 785.901 26.2936 785.717C26.2936 785.717 24.0586 779.045 23.8585 778.512C21.5901 773.742 14.3514 765.836 8.48045 766.636C7.50852 766.797 6.58132 767.16 5.75938 767.703C4.93745 768.246 4.23927 768.956 3.71041 769.787C3.18155 770.618 2.83392 771.551 2.69019 772.526C2.54647 773.5 2.6099 774.494 2.87634 775.443C3.62176 777.435 4.79302 779.24 6.30833 780.732C7.82364 782.224 9.64646 783.368 11.6495 784.082Z" fill="#263238"/>
<path d="M15.2186 814.205C20.1198 814.177 24.9889 813.412 29.6626 811.936C31.1686 817.252 33.0411 822.457 35.2667 827.514C36.5343 830.483 37.9353 833.419 39.3364 836.321C38.5024 835.087 37.7352 833.986 37.6018 833.852C34.266 829.849 25.1259 824.145 19.6552 826.48C18.7534 826.889 17.9486 827.484 17.2936 828.226C16.6386 828.969 16.1483 829.841 15.8552 830.787C15.5621 831.732 15.4727 832.729 15.5929 833.712C15.7132 834.695 16.0404 835.641 16.5529 836.488C17.7955 838.216 19.4006 839.651 21.2559 840.694C23.1113 841.737 25.172 842.362 27.2941 842.526C32.0471 842.55 36.7746 841.83 41.3045 840.391C41.8716 841.491 42.4053 842.626 42.9724 843.726C45.6744 849.097 48.3764 854.401 50.8449 859.738C51.7455 861.606 52.5461 863.474 53.3467 865.342L51.8456 863.174C48.5098 859.171 39.3364 853.5 33.8657 855.802C32.9676 856.215 32.1664 856.812 31.5145 857.555C30.8625 858.298 30.3743 859.169 30.0817 860.113C29.789 861.058 29.6985 862.053 29.8159 863.034C29.9334 864.015 30.2562 864.961 30.7634 865.809C32.0242 867.505 33.637 868.908 35.4911 869.921C37.3452 870.934 39.3967 871.535 41.5046 871.68C46.129 871.693 50.7287 871.007 55.148 869.646C55.9153 871.58 56.6825 873.515 57.3496 875.416C57.7833 876.751 58.2503 877.985 58.6172 879.353L59.7181 883.289C60.3185 885.791 60.9523 888.426 61.486 890.895C61.8863 892.629 62.1865 894.23 62.5535 895.931C61.6862 894.063 59.9516 890.427 59.7514 890.161C56.9494 885.657 48.8767 878.686 43.0725 880.153C42.1245 880.414 41.2429 880.874 40.486 881.501C39.7291 882.129 39.1143 882.91 38.6821 883.793C38.25 884.676 38.0105 885.641 37.9795 886.624C37.9486 887.607 38.1268 888.585 38.5024 889.493C39.4626 891.396 40.8301 893.064 42.5078 894.379C44.1856 895.693 46.1323 896.622 48.2096 897.099C53.0183 897.837 57.9115 897.837 62.7203 897.099C63.254 899.868 63.7877 902.536 64.2214 905.072C65.7558 913.878 66.7232 921.25 67.3237 926.421C67.3237 927.321 67.5238 928.155 67.5905 928.923H49.8441L52.0124 971.087H91.0745L93.2428 928.923H76.5638C76.5638 928.689 76.7973 928.422 76.9307 928.155C79.1991 923.418 82.3681 916.613 85.7706 908.141C86.8714 905.505 87.9722 902.67 89.1064 899.768C93.8487 900.865 98.73 901.236 103.584 900.868C105.675 900.562 107.675 899.804 109.444 898.646C111.213 897.488 112.707 895.958 113.825 894.164C114.265 893.281 114.514 892.315 114.555 891.329C114.596 890.343 114.428 889.36 114.063 888.444C113.697 887.527 113.143 886.699 112.435 886.011C111.727 885.324 110.882 884.794 109.955 884.456C104.351 882.588 95.778 888.96 92.6423 893.23C92.4422 893.463 90.7409 896.565 89.7068 898.3C90.1405 897.099 90.6075 895.932 91.0411 894.697C91.9418 892.262 92.7757 889.794 93.643 887.158L94.8439 883.222C95.2442 881.921 95.5111 880.487 95.878 879.119C96.6453 875.783 97.2791 872.648 97.8128 869.312C102.207 871.058 106.841 872.126 111.556 872.481C113.686 872.463 115.787 871.986 117.715 871.082C119.644 870.178 121.355 868.869 122.731 867.244C123.298 866.437 123.689 865.52 123.877 864.552C124.065 863.584 124.047 862.587 123.823 861.627C123.6 860.666 123.176 859.764 122.579 858.979C121.983 858.193 121.228 857.543 120.363 857.07C115.092 854.368 105.652 859.371 101.916 863.107C101.682 863.341 99.2806 866.443 98.013 867.978C98.3132 865.976 98.6467 863.975 98.9136 861.94C99.6141 856.069 100.181 850.098 100.748 844.16C100.948 842.325 101.149 840.524 101.315 838.689C105.857 840.51 110.648 841.634 115.526 842.025C117.657 842.018 119.762 841.546 121.692 840.641C123.622 839.737 125.331 838.422 126.701 836.788C127.244 835.988 127.616 835.084 127.791 834.133C127.967 833.181 127.942 832.204 127.719 831.263C127.497 830.322 127.08 829.437 126.497 828.665C125.914 827.894 125.177 827.252 124.332 826.781C119.095 824.045 109.655 829.049 105.885 832.785C105.619 833.085 102.183 837.355 101.349 838.489C101.782 834.486 102.249 830.517 102.85 826.614C103.617 821.331 104.731 816.105 106.186 810.969C110.754 812.779 115.565 813.903 120.463 814.305C122.593 814.286 124.693 813.809 126.622 812.906C128.55 812.002 130.261 810.693 131.638 809.068C132.2 808.259 132.586 807.342 132.771 806.375C132.956 805.408 132.937 804.413 132.714 803.454C132.49 802.495 132.068 801.594 131.475 800.808C130.882 800.023 130.13 799.37 129.269 798.893C123.999 796.191 114.558 801.195 110.822 804.931C110.522 805.231 106.819 809.835 106.219 810.735C106.313 810.428 106.39 810.116 106.453 809.801C108.121 804.675 110.242 799.708 112.791 794.957C114.125 792.322 115.559 789.853 117.027 787.518C121.262 789.786 125.817 791.395 130.537 792.288C132.654 792.513 134.796 792.275 136.812 791.589C138.828 790.904 140.671 789.788 142.212 788.319C142.862 787.579 143.349 786.712 143.642 785.773C143.935 784.833 144.029 783.843 143.915 782.865C143.802 781.887 143.485 780.944 142.985 780.097C142.485 779.249 141.812 778.516 141.011 777.945C136.074 774.609 126.134 778.612 121.997 781.914C121.764 782.081 119.696 784.149 118.194 785.684C118.862 784.649 119.529 783.549 120.196 782.548C122.664 778.812 125.166 775.576 127.401 772.707L131.004 768.271C135.794 768.339 140.565 767.664 145.148 766.269C147.133 765.495 148.926 764.298 150.401 762.759C151.876 761.221 152.998 759.379 153.687 757.363C153.921 756.408 153.951 755.416 153.775 754.449C153.6 753.482 153.223 752.563 152.669 751.751C152.116 750.94 151.398 750.254 150.561 749.738C149.725 749.222 148.79 748.887 147.816 748.756C141.912 748.123 134.94 756.195 132.772 760.999C132.605 761.432 130.437 768.304 130.537 768.304C129.403 769.572 128.235 770.939 126.968 772.44C124.666 775.276 122.097 778.512 119.529 782.181C116.727 786.133 114.154 790.243 111.823 794.49C109.162 799.23 106.929 804.197 105.152 809.334V809.534C105.152 807.8 105.152 802.863 105.152 802.563C104.484 797.325 100.081 787.585 94.2769 786.518C93.2974 786.366 92.2971 786.424 91.3413 786.686C90.3856 786.948 89.496 787.409 88.7308 788.039C87.9656 788.669 87.342 789.453 86.9008 790.341C86.4597 791.228 86.211 792.199 86.1709 793.189C86.2647 795.312 86.8171 797.389 87.7903 799.278C88.7635 801.167 90.1343 802.822 91.8084 804.131C95.9246 806.815 100.423 808.862 105.152 810.202C103.503 815.482 102.199 820.864 101.249 826.314C100.682 829.483 100.215 832.685 99.7809 835.887C99.7809 834.386 99.7809 833.052 99.7809 832.885C99.0804 827.614 94.7105 817.907 88.8729 816.806C87.8951 816.655 86.8964 816.713 85.9424 816.975C84.9885 817.238 84.101 817.699 83.3383 818.329C82.5757 818.96 81.9552 819.744 81.5177 820.632C81.0802 821.519 80.8357 822.489 80.8003 823.478C80.8763 825.606 81.4175 827.691 82.3856 829.587C83.3538 831.483 84.7255 833.144 86.4044 834.453C90.3705 837.074 94.7122 839.076 99.2805 840.391C99.2805 841.625 98.9803 842.859 98.8469 844.093C98.113 850.031 97.4459 855.969 96.5786 861.773C96.2783 863.808 95.9114 865.809 95.5778 867.811C95.5778 866.476 95.5778 865.376 95.5778 865.209C94.9107 859.938 90.5074 850.231 84.7031 849.13C83.7237 848.979 82.7233 849.037 81.7676 849.299C80.8118 849.561 79.9223 850.022 79.157 850.652C78.3918 851.282 77.7683 852.066 77.3271 852.954C76.886 853.841 76.6372 854.812 76.5971 855.802C76.6884 857.93 77.2396 860.013 78.2127 861.907C79.1859 863.802 80.558 865.463 82.2346 866.777C86.0798 869.345 90.2996 871.303 94.7439 872.581C94.3102 874.616 93.8766 876.684 93.3762 878.652C92.9759 879.953 92.709 881.287 92.2754 882.588C91.8417 883.889 91.4081 885.19 91.0078 886.491C90.1071 888.926 89.2064 891.462 88.2724 893.83C87.6386 895.465 87.0048 897.166 86.371 898.6C86.7046 896.565 87.2383 892.562 87.2717 892.229C87.214 887.54 85.9503 882.945 83.6023 878.886C83.6687 878.376 83.6687 877.861 83.6023 877.351C83.4792 876.375 83.1518 875.436 82.6416 874.595C82.1313 873.754 81.4496 873.029 80.6408 872.469C79.8321 871.909 78.9144 871.526 77.9475 871.344C76.9807 871.162 75.9864 871.186 75.0293 871.413C69.3251 872.915 65.6891 882.989 65.4223 888.259C65.4223 888.559 65.4222 891.962 65.7558 894.097C65.489 892.863 65.2221 891.662 64.8885 890.361C64.2881 887.859 63.6209 885.324 62.9204 882.622C62.5201 881.354 62.1198 880.053 61.7195 878.719C61.3526 877.418 60.8189 876.05 60.3519 874.716C59.2177 871.614 57.9167 868.545 56.5491 865.476C61.2298 864.528 65.7324 862.851 69.8922 860.505C71.6644 859.327 73.1585 857.776 74.2704 855.962C75.3822 854.147 76.0852 852.112 76.3303 849.998C76.357 849.014 76.1762 848.036 75.7996 847.127C75.4231 846.218 74.8592 845.398 74.1449 844.722C73.4305 844.045 72.5816 843.527 71.6534 843.2C70.7253 842.873 69.7387 842.746 68.758 842.826C62.8871 843.46 57.7833 852.833 56.7158 858.037C56.7158 858.337 56.2822 862.14 56.1488 864.241C55.2814 862.407 54.4475 860.572 53.5468 858.704C50.9116 853.433 48.0761 848.13 45.2741 842.859L42.7389 837.989C47.543 837.016 52.1677 835.305 56.449 832.918C58.2166 831.738 59.7054 830.187 60.8115 828.372C61.9177 826.557 62.6147 824.523 62.8537 822.411C62.9362 821.363 62.7808 820.31 62.399 819.331C62.0172 818.352 61.419 817.471 60.649 816.756C59.8791 816.04 58.9573 815.508 57.9527 815.199C56.9481 814.891 55.8867 814.813 54.8478 814.972C48.9434 815.606 43.8397 824.979 42.7722 830.183C42.7722 830.55 42.2052 836.021 42.1384 837.422C40.2704 833.852 38.4691 830.283 36.8012 826.681C34.5548 821.841 32.627 816.86 31.0302 811.77C35.8519 810.767 40.4959 809.046 44.8071 806.666C46.5793 805.487 48.0733 803.937 49.1852 802.122C50.2971 800.307 51 798.272 51.2451 796.158C51.2519 795.195 51.0598 794.24 50.681 793.354C50.3021 792.469 49.7447 791.67 49.0434 791.01C48.3421 790.349 47.5121 789.84 46.6053 789.515C45.6984 789.19 44.7342 789.055 43.773 789.119C37.8686 789.753 32.7648 799.127 31.6974 804.331C31.6974 804.731 31.097 810.602 31.0636 811.703L30.7634 810.802C29.3059 805.64 28.3014 800.36 27.7612 795.024C27.4276 792.088 27.2942 789.253 27.1941 786.518C31.9815 786.061 36.6718 784.88 41.1043 783.015C42.9916 782.035 44.6433 780.656 45.945 778.974C47.2467 777.292 48.1673 775.347 48.6432 773.274C48.7792 772.304 48.7102 771.316 48.4406 770.374C48.171 769.433 47.7069 768.558 47.0782 767.806C46.4494 767.055 45.6701 766.444 44.7905 766.013C43.9109 765.581 42.9506 765.339 41.9716 765.302C36.0673 765.302 29.9628 774.042 28.3283 779.079C28.3283 779.346 27.6277 782.248 27.2274 784.349C27.2274 783.082 27.2274 781.814 27.2274 780.613C27.2274 776.143 27.5277 772.04 27.8279 768.404C27.8279 766.336 28.1948 764.468 28.395 762.733C32.4194 760.144 36.02 756.948 39.0695 753.26C40.2891 751.52 41.1174 749.537 41.4975 747.446C41.8775 745.356 41.8003 743.208 41.2711 741.151C40.9423 740.224 40.422 739.377 39.744 738.664C39.0661 737.952 38.2458 737.39 37.3364 737.016C36.427 736.641 35.449 736.462 34.4659 736.491C33.4829 736.519 32.5168 736.755 31.6307 737.181C26.3601 739.916 24.9591 750.524 25.8598 755.695C25.8598 756.162 27.8946 763.067 27.9947 763C27.7612 764.668 27.5277 766.336 27.3275 768.437C26.9606 772.074 26.5936 776.177 26.4936 780.68C26.3121 785.519 26.4235 790.365 26.8271 795.191C27.2476 800.609 28.1519 805.979 29.5291 811.236V811.403C28.5951 809.935 25.8598 805.932 25.5929 805.665C22.2571 801.662 13.117 795.958 7.64634 798.259C6.7446 798.668 5.93971 799.263 5.28471 800.005C4.62971 800.748 4.13948 801.62 3.84635 802.566C3.55322 803.512 3.46385 804.509 3.58411 805.491C3.70437 806.474 4.03155 807.42 4.54406 808.267C5.78952 809.968 7.38845 811.38 9.23105 812.405C11.0736 813.43 13.1163 814.044 15.2186 814.205ZM73.9619 891.695C77.5241 894.769 81.4989 897.329 85.7706 899.301C84.7031 901.903 83.6357 904.438 82.4348 906.773C78.8988 914.979 75.7632 921.65 73.2614 926.321C72.7943 927.255 72.3607 928.055 71.9604 928.822H71.5601C71.5601 927.911 71.4267 926.91 71.1598 925.82C70.4593 920.616 69.3251 913.178 67.5572 904.338C67.0234 901.536 66.3563 898.567 65.6891 895.498C68.5189 894.394 71.2813 893.124 73.9619 891.695Z" fill="#263238"/>
<path d="M116.794 786.384C116.794 786.384 118.662 779.479 118.728 779.012C119.462 773.775 117.794 763.234 112.457 760.665C111.556 760.262 110.581 760.053 109.594 760.053C108.607 760.052 107.631 760.261 106.731 760.664C105.83 761.067 105.025 761.656 104.367 762.392C103.71 763.128 103.216 763.995 102.917 764.935C102.437 767.011 102.416 769.167 102.854 771.252C103.291 773.337 104.178 775.302 105.452 777.011C108.745 780.682 112.567 783.842 116.794 786.384Z" fill="#263238"/>
<path d="M24.8594 970.787H1270.24" stroke="#263238" stroke-width="2" stroke-linecap="round" stroke-linejoin="round"/>
</svg>
